<svg width="226" height="64" viewBox="0 0 226 64" fill="none" xmlns="http://www.w3.org/2000/svg">
<path d="M64 3.2C64 1.43269 62.5673 0 60.8 0H54.4C52.6327 0 51.2 1.43269 51.2 3.2V60.8C51.2 62.5673 52.6327 64 54.4 64H60.8C62.5673 64 64 62.5673 64 60.8V28.8C64 27.0327 65.4327 25.6 67.2 25.6H73.6C75.3673 25.6 76.8 24.1673 76.8 22.4V16C76.8 14.2327 75.3673 12.8 73.6 12.8H67.2C65.4327 12.8 64 11.3673 64 9.6V3.2Z" fill="#1E1E1E"/>
<path d="M38.4 28.8C38.4 27.0327 36.9673 25.6 35.2 25.6H28.8C27.0327 25.6 25.6 27.0327 25.6 28.8V44.8C25.6 48.3346 22.7346 51.2 19.2 51.2C15.6654 51.2 12.8 48.3346 12.8 44.8V41.6C12.8 39.8327 11.3673 38.4 9.6 38.4H3.2C1.43269 38.4 0 39.8327 0 41.6V44.8C0 55.4039 8.59613 64 19.2 64C29.8039 64 38.4 55.4039 38.4 44.8V28.8Z" fill="#1E1E1E"/>
<path d="M25.6 3.2C25.6 1.43269 27.0327 0 28.8 0H35.2C36.9673 0 38.4 1.43269 38.4 3.2V9.6C38.4 11.3673 36.9673 12.8 35.2 12.8H28.8C27.0327 12.8 25.6 11.3673 25.6 9.6V3.2Z" fill="#1E1E1E"/>
<path d="M102.257 23.7466C102.257 25.6205 101.98 27.0643 101.427 28.0781C100.413 29.952 98.4781 30.9043 95.6211 30.9043C93.9622 30.9043 92.5491 30.4435 91.3818 29.5526C90.2144 28.6618 89.6307 27.095 89.6307 24.791V23.2243H92.4262V24.791C92.4262 25.9891 92.7027 26.88 93.2557 27.4944C93.7779 28.1088 94.6074 28.416 95.744 28.416C97.3414 28.416 98.3552 27.863 98.8467 26.7571C99.1539 26.0813 99.3075 24.8218 99.3075 22.9786V8.29441H102.257V23.7466Z" fill="#1E1E1E"/>
<path d="M124.959 11.4278C126.403 13.3939 127.14 15.8822 127.14 18.9235C127.14 22.2106 126.31 24.9446 124.652 27.1258C122.685 29.6755 119.89 30.9658 116.265 30.9658C112.855 30.9658 110.213 29.8291 108.278 27.6173C106.527 25.4362 105.667 22.7021 105.667 19.415C105.667 16.4352 106.404 13.8854 107.878 11.7658C109.783 9.06241 112.609 7.68001 116.326 7.68001C120.197 7.68001 123.085 8.93953 124.959 11.4278ZM122.348 25.4669C123.515 23.593 124.099 21.4118 124.099 18.9542C124.099 16.3738 123.423 14.2848 122.071 12.7181C120.689 11.1206 118.845 10.3526 116.511 10.3526C114.207 10.3526 112.364 11.1206 110.92 12.6874C109.476 14.2541 108.769 16.5581 108.769 19.5994C108.769 22.057 109.384 24.1152 110.612 25.7741C111.841 27.4637 113.838 28.2931 116.634 28.2931C119.245 28.2931 121.149 27.3408 122.348 25.4669Z" fill="#1E1E1E"/>
<path d="M140.114 8.29441C142.694 8.29441 144.506 9.06241 145.612 10.5984C146.258 11.52 146.565 12.5645 146.565 13.7318C146.565 15.145 146.196 16.2816 145.397 17.1725C144.998 17.6333 144.384 18.0634 143.616 18.4627C144.752 18.8928 145.612 19.3843 146.165 19.9066C147.148 20.8589 147.64 22.1798 147.64 23.9002C147.64 25.3133 147.179 26.5728 146.288 27.7402C144.967 29.4605 142.848 30.3207 139.96 30.3207H130.652V8.29441H140.114ZM139.008 17.6026C140.267 17.6026 141.219 17.4182 141.926 17.0803C143.032 16.5274 143.585 15.5443 143.585 14.1005C143.585 12.6566 143.001 11.7043 141.834 11.1821C141.189 10.9056 140.206 10.7827 138.885 10.7827H133.57V17.6026H139.008ZM139.991 27.7709C141.834 27.7709 143.124 27.2486 143.923 26.1734C144.414 25.4976 144.66 24.6989 144.66 23.7466C144.66 22.1491 143.923 21.0739 142.51 20.4902C141.742 20.1523 140.728 20.0294 139.499 20.0294H133.57V27.7709H139.991Z" fill="#1E1E1E"/>
<path d="M100.045 36.5056V55.9206H97.0342V36.5056H89.6V33.8944H107.479V36.5056H100.045Z" fill="#1E1E1E"/>
<path d="M120.791 33.8944C122.48 33.8944 123.863 34.1402 124.938 34.6317C127.027 35.5533 128.041 37.3043 128.041 39.8234C128.041 41.1443 127.764 42.2195 127.242 43.0797C126.689 43.9091 125.921 44.585 124.938 45.0765C125.798 45.4451 126.443 45.9059 126.904 46.4589C127.334 47.0426 127.58 47.9642 127.611 49.2544L127.734 52.2035C127.734 53.033 127.826 53.6781 127.918 54.0774C128.102 54.784 128.409 55.2448 128.901 55.4291V55.9206H125.215C125.122 55.7363 125.061 55.4906 125 55.1834C124.938 54.8762 124.877 54.2925 124.846 53.4323L124.662 49.7766C124.569 48.3328 124.047 47.3805 123.064 46.889C122.48 46.6125 121.59 46.4589 120.361 46.4589H113.572V55.9206H110.592V33.8944H120.791ZM120.484 43.9706C121.866 43.9706 122.972 43.6941 123.801 43.1411C124.6 42.5882 125.03 41.5744 125.03 40.0998C125.03 38.5331 124.447 37.4579 123.31 36.905C122.696 36.5978 121.897 36.4442 120.852 36.4442H113.572V43.9706H120.484Z" fill="#1E1E1E"/>
<path d="M150.18 55.9206H146.893L144.681 49.3158H135.957L133.561 55.9206H130.519L138.814 33.8944H142.193L150.18 55.9206ZM136.817 46.889H143.698L140.35 37.1507L136.817 46.889Z" fill="#1E1E1E"/>
<path d="M161.946 33.8944C164.987 33.8944 167.322 34.9696 169.011 37.12C170.486 39.0554 171.223 41.5437 171.223 44.5542C171.223 46.9197 170.793 49.0086 169.902 50.9133C168.366 54.2618 165.693 55.9206 161.915 55.9206H153.037V33.8944H161.946ZM161.362 53.3709C162.345 53.3709 163.205 53.2787 163.85 53.0637C164.987 52.6643 165.939 51.927 166.676 50.7904C167.26 49.9302 167.721 48.7936 167.967 47.3805C168.12 46.551 168.182 45.7831 168.182 45.0765C168.182 42.3424 167.66 40.2227 166.554 38.7174C165.478 37.2122 163.727 36.4442 161.331 36.4442H156.017V53.3709H161.362Z" fill="#1E1E1E"/>
<path d="M178.74 55.9206H175.729V33.8944H178.74V55.9206Z" fill="#1E1E1E"/>
<path d="M198.257 51.7427V33.8944H201.114V55.9206H197.765L186.46 38.0723V55.9206H183.603V33.8944H187.136L198.257 51.7427Z" fill="#1E1E1E"/>
<path d="M220.672 34.5088C222.854 35.6762 224.205 37.673 224.697 40.5606H221.748C221.379 38.9632 220.642 37.7651 219.505 37.0278C218.368 36.2906 216.955 35.9526 215.235 35.9526C213.177 35.9526 211.487 36.7206 210.074 38.2259C208.692 39.7619 207.985 42.0352 207.985 45.0765C207.985 47.6877 208.569 49.8381 209.705 51.4662C210.873 53.1251 212.747 53.9546 215.327 53.9546C217.324 53.9546 218.983 53.3709 220.273 52.2035C221.594 51.0362 222.239 49.193 222.27 46.6125H215.389V44.1242H225.065V55.9206H223.13L222.423 53.0944C221.41 54.2003 220.519 54.9683 219.72 55.3984C218.43 56.1357 216.771 56.5043 214.743 56.5043C212.132 56.5043 209.859 55.6749 207.985 53.9853C205.958 51.8656 204.913 48.9472 204.913 45.2301C204.913 41.5437 205.927 38.6253 207.924 36.4442C209.828 34.3552 212.286 33.3107 215.296 33.3107C217.385 33.3107 219.167 33.7101 220.672 34.5088Z" fill="#1E1E1E"/>
</svg>
